# xmcd
#
# Track frame offsets:
#	150
#	17037
#	42376
#	61851
#	89445
#	106879
#	130147
#	145499
#	168743
#	185831
#	210257
#	230649
#	241875
#	264647
#	274607
#	296171
#
# Disc length: 4223 seconds
#
# Revision: 1
# Processed by: cddbd v1.5.1PL0 Copyright (c) Steve Scherf et al.
# Submitted via: EasyCDDAExtractor 7.1.0.1
#
DISCID=f1107d10
DTITLE=Solomon Burke - Don't give up on me
DYEAR=1900
DGENRE=Blues
TTITLE0=Don't give up on me
TTITLE1=Fast train
TTITLE2=Diamond in your mind
TTITLE3=Flesh and blood
TTITLE4=Soul searchin'
TTITLE5=Only a dream
TTITLE6=The Judgement
TTITLE7=Stepchild
TTITLE8=The other side of the coin
TTITLE9=None of us are free
TTITLE10=Sit this one out
TTITLE11=Cry to me (Don't you feel like crying)
TTITLE12=My babe
TTITLE13=She wears my ring
TTITLE14=Lonesome Highway
TTITLE15=Love buys love
EXTD=
EXTT0=
EXTT1=
EXTT2=
EXTT3=
EXTT4=
EXTT5=
EXTT6=
EXTT7=
EXTT8=
EXTT9=
EXTT10=
EXTT11=
EXTT12=
EXTT13=
EXTT14=
EXTT15=
PLAYORDER=
